<svg xmlns="http://www.w3.org/2000/svg" xmlns:xlink="http://www.w3.org/1999/xlink" width="564.864" height="142.931" viewBox="0 0 564.864 142.931">
  <defs>
    <clipPath id="clip-path">
      <path id="Path_5" data-name="Path 5" d="M0,91.555H564.864V-51.376H0Z" transform="translate(0 51.376)" fill="none"/>
    </clipPath>
    <clipPath id="clip-path-2">
      <path id="Path_7" data-name="Path 7" d="M20.932-30.447A71,71,0,0,0,0,20.084H0A71.227,71.227,0,0,0,7.022,51.059H47.876a38.9,38.9,0,0,1-15.36-30.975h0A39,39,0,0,1,71.471-18.868h0a39,39,0,0,1,38.951,38.951h0A38.891,38.891,0,0,1,95.06,51.059h40.849a71.227,71.227,0,0,0,7.022-30.975h0A71,71,0,0,0,122-30.447h0a70.977,70.977,0,0,0-50.53-20.929h0A71,71,0,0,0,20.932-30.447m-13.4,63.3a64.834,64.834,0,0,1-1.257-12.77h0A65.263,65.263,0,0,1,71.471-45.1h0a65.255,65.255,0,0,1,65.183,65.183h0a64.938,64.938,0,0,1-4.857,24.7H124.33a57.978,57.978,0,0,0,4.07-11.857h0a58.3,58.3,0,0,0,1.419-12.842h0A58.411,58.411,0,0,0,71.471-38.259h0A58.408,58.408,0,0,0,13.12,20.084h0a57.991,57.991,0,0,0,5.489,24.7H11.142A65.138,65.138,0,0,1,7.534,32.853m13.5.172A51.7,51.7,0,0,1,19.4,20.084h0A52.13,52.13,0,0,1,71.471-31.98h0a52.124,52.124,0,0,1,52.063,52.063h0a51.778,51.778,0,0,1-6.232,24.7h-7.954a44.992,44.992,0,0,0,5.419-11.6h0a45.149,45.149,0,0,0,1.931-13.1h0A45.279,45.279,0,0,0,71.471-25.144h0A45.286,45.286,0,0,0,26.229,20.084h0a44.933,44.933,0,0,0,7.361,24.7H25.637A51.819,51.819,0,0,1,21.03,33.026M77.363,5.959a12.282,12.282,0,0,0-9.072,11.846h0v1.244a12.143,12.143,0,0,0-3.814-1.783h0L46.4,11.568V22.835a14.409,14.409,0,0,0,10.647,13.9h0l11.239,3.614V51.062a14.594,14.594,0,0,0-8.613,2.729h0a20.9,20.9,0,0,1-3.53,2.1h0a21.63,21.63,0,0,1-2.955,1.13h0a21.007,21.007,0,0,1-6.023.871H10.8c1.224,1.972,2.562,3.887,3.989,5.745h0v.534h.423a73.116,73.116,0,0,0,5.723,6.449h0A71.292,71.292,0,0,0,47.17,87.337h0a71.672,71.672,0,0,0,8.277,2.429h.008q2.988.676,6.045,1.1H81.439a70.724,70.724,0,0,0,32.884-13.574h.217v-.167a72.455,72.455,0,0,0,7.461-6.5h0a72.336,72.336,0,0,0,10.141-12.728H95.761c-.64,0-1.285-.028-1.917-.089h0a20.843,20.843,0,0,1-7.052-1.911h0a20.728,20.728,0,0,1-3.536-2.1h0a14.586,14.586,0,0,0-8.669-2.732H73.552V17.805a7.013,7.013,0,0,1,5.219-6.78h0l11.4-3.592v4.1a9.139,9.139,0,0,1-6.8,8.827h0l-6.613,2.12V28.01l8.037-2.587A14.405,14.405,0,0,0,95.433,11.529h0V.259ZM58.6,31.7l-.136-.039a9.144,9.144,0,0,1-6.794-8.827h0v-4.1L62.952,22.3l.111.039a7.021,7.021,0,0,1,5.227,6.78h0V34.82Zm-35.1,32.472H47.17a27.259,27.259,0,0,0,9-1.519h0a27.394,27.394,0,0,0,7.909-4.323h0c.442-.353.882-.721,1.3-1.1H74.62c-.459.606-.924,1.194-1.416,1.764h0a34.393,34.393,0,0,1-6.741,6.045h0a34.516,34.516,0,0,1-10.408,4.791h0a34.418,34.418,0,0,1-8.886,1.18H30.817a65.786,65.786,0,0,1-7.322-6.841M47.74,80.8a64.848,64.848,0,0,1-7.5-3.508h6.93a40.276,40.276,0,0,0,8.744-.963h0a40.623,40.623,0,0,0,11.27-4.346h0a41.12,41.12,0,0,0,8.972-6.905h0a40.475,40.475,0,0,0,4.479-5.464h0a27.326,27.326,0,0,0,6.187,3.057h0v0h0a47.423,47.423,0,0,1-7.548,8.894h0A47.511,47.511,0,0,1,69.7,78.412h-.008a47.212,47.212,0,0,1-13.974,4.933h0A63.419,63.419,0,0,1,47.74,80.8M90.325,68.625a52.788,52.788,0,0,0,3.024-4.557h0c.8.075,1.6.106,2.412.106h23.675a65.7,65.7,0,0,1-7.314,6.841H88.452q.972-1.173,1.872-2.39M70.063,85.256a53.553,53.553,0,0,0,11.7-7.506h0c.362-.131.879-.323,1.244-.456h19.691A64.815,64.815,0,0,1,71.471,85.27h0c-.473,0-.94,0-1.408-.014" transform="translate(0 51.376)" fill="none"/>
    </clipPath>
    <linearGradient id="linear-gradient" x1="-0.09" y1="-0.01" x2="0.786" y2="-0.01" gradientUnits="objectBoundingBox">
      <stop offset="0" stop-color="#2a9742"/>
      <stop offset="0.1" stop-color="#329b43"/>
      <stop offset="0.2" stop-color="#3b9f43"/>
      <stop offset="0.3" stop-color="#45a444"/>
      <stop offset="0.4" stop-color="#4fa944"/>
      <stop offset="0.5" stop-color="#59af45"/>
      <stop offset="0.6" stop-color="#64b545"/>
      <stop offset="0.7" stop-color="#70bb46"/>
      <stop offset="0.8" stop-color="#7bc146"/>
      <stop offset="0.9" stop-color="#84c647"/>
      <stop offset="1" stop-color="#84c647"/>
    </linearGradient>
  </defs>
  <g id="Group_173" data-name="Group 173" transform="translate(0 51.376)">
    <g id="Group_3" data-name="Group 3" transform="translate(0 -51.376)" clip-path="url(#clip-path)">
      <g id="Group_2" data-name="Group 2" transform="translate(-0.001 -0.002)">
        <path id="Path_4" data-name="Path 4" d="M78.148,13.408A70.964,70.964,0,0,0,27.618-7.524,71.531,71.531,0,0,0-36.831,94.914H4.026a38.951,38.951,0,1,1,47.184,0H92.058a71.589,71.589,0,0,0-13.91-81.506m-4.7,75.229H65.5a44.991,44.991,0,0,0,7.353-24.7,45.235,45.235,0,1,0-83.108,24.7h-7.954a51.838,51.838,0,0,1-6.24-24.7,52.067,52.067,0,1,1,97.9,24.7m14.494,0H80.48A58.029,58.029,0,0,0,84.547,76.78,58.354,58.354,0,1,0-30.733,63.938a58.033,58.033,0,0,0,5.489,24.7h-7.467A65.186,65.186,0,1,1,92.8,63.938a64.885,64.885,0,0,1-4.857,24.7m-37.953,13.02a20.776,20.776,0,0,1-7.052-1.908,21.1,21.1,0,0,1-3.536-2.1,14.583,14.583,0,0,0-8.666-2.732H29.7V61.66a7.016,7.016,0,0,1,5.219-6.78l11.4-3.594v4.1a9.137,9.137,0,0,1-6.8,8.825L32.9,66.331v5.533l8.037-2.587A14.405,14.405,0,0,0,51.58,55.384V44.114l-18.067,5.7A12.287,12.287,0,0,0,24.438,61.66V62.9a12.185,12.185,0,0,0-3.811-1.781L2.552,55.42V66.69A14.409,14.409,0,0,0,13.2,80.583L24.438,84.2V94.917a14.581,14.581,0,0,0-8.613,2.729,21.16,21.16,0,0,1-3.53,2.1,21.619,21.619,0,0,1-2.955,1.127,20.906,20.906,0,0,1-6.02.874H-33.056c1.227,1.97,2.565,3.887,3.992,5.745v.531h.42a73.548,73.548,0,0,0,5.723,6.452A70.983,70.983,0,0,0,11.6,133.62H11.6a72.244,72.244,0,0,0,16.013,1.789,70.924,70.924,0,0,0,42.855-14.264h.217v-.164a72.51,72.51,0,0,0,17.6-19.232H51.908c-.637,0-1.285-.031-1.917-.092m-35.246-26.1-.134-.039a9.144,9.144,0,0,1-6.8-8.827v-4.1L19.1,66.15l.111.036a7.024,7.024,0,0,1,5.227,6.783v5.706Zm-35.1,32.469H3.319a27.229,27.229,0,0,0,9-1.516,27.388,27.388,0,0,0,7.909-4.323c.445-.353.882-.723,1.3-1.1h9.239c-.459.609-.924,1.2-1.413,1.767A34.507,34.507,0,0,1,22.61,108.9a34.494,34.494,0,0,1-10.4,4.788,34.332,34.332,0,0,1-8.886,1.182H-13.033a65.838,65.838,0,0,1-7.325-6.844m46.2,14.241A47.307,47.307,0,0,1,11.866,127.2a63.834,63.834,0,0,1-7.976-2.543,64.684,64.684,0,0,1-7.5-3.511H3.319a40.231,40.231,0,0,0,8.741-.963,40.536,40.536,0,0,0,11.27-4.346,41.021,41.021,0,0,0,8.972-6.9,40.267,40.267,0,0,0,4.479-5.464,27.442,27.442,0,0,0,6.187,3.057v0a47.5,47.5,0,0,1-7.548,8.894,47.6,47.6,0,0,1-9.57,6.841Zm1.775,6.858c-.473,0-.94,0-1.408-.017a53.475,53.475,0,0,0,11.7-7.5c.364-.134.879-.323,1.244-.459H58.841a64.809,64.809,0,0,1-31.223,7.979m40.651-14.255H44.6q.968-1.173,1.872-2.393a52.076,52.076,0,0,0,3.021-4.554c.8.075,1.6.1,2.412.1H75.583a65.487,65.487,0,0,1-7.314,6.844" transform="translate(43.853 7.524)" fill="#175157"/>
      </g>
    </g>
    <g id="Group_5" data-name="Group 5" transform="translate(0 -51.376)" clip-path="url(#clip-path-2)">
      <g id="Group_4" data-name="Group 4" transform="translate(0 142.931) rotate(-90)">
        <path id="Path_6" data-name="Path 6" d="M142.931,0V564.865H0V0Z" transform="translate(0)" fill="url(#linear-gradient)"/>
      </g>
    </g>
    <g id="Group_9" data-name="Group 9" transform="translate(0 -51.376)" clip-path="url(#clip-path)">
      <g id="Group_6" data-name="Group 6" transform="translate(163.358 40.436)">
        <path id="Path_8" data-name="Path 8" d="M46.406,23.2A36.023,36.023,0,0,1,30.142,53.431,35.284,35.284,0,0,1,10.265,59.51a36.265,36.265,0,1,1,0-72.531,35.853,35.853,0,0,1,19.878,6A36.133,36.133,0,0,1,46.406,23.2M10.265,43.246A20,20,0,1,0-9.777,23.2,19.981,19.981,0,0,0,10.265,43.246" transform="translate(26.041 13.021)" fill="#fff"/>
      </g>
      <g id="Group_7" data-name="Group 7" transform="translate(251.41 40.437)">
        <path id="Path_9" data-name="Path 9" d="M23.2,10.418A19.983,19.983,0,0,0,3.243,30.379V66.685H-13.021V-5.846H3.243v6a35.956,35.956,0,0,1,19.961-6Z" transform="translate(13.021 5.846)" fill="#fff"/>
      </g>
      <g id="Group_8" data-name="Group 8" transform="translate(299.336 14.383)">
        <path id="Path_10" data-name="Path 10" d="M6.134,0a9.574,9.574,0,1,1,0,19.149A9.66,9.66,0,0,1-3.442,9.576,9.6,9.6,0,0,1,6.134,0M-2,26.054H14.266V98.585H-2Z" transform="translate(3.442)" fill="#fff"/>
      </g>
    </g>
    <g id="Group_10" data-name="Group 10" transform="translate(330.188 -10.857)">
      <path id="Path_12" data-name="Path 12" d="M0,0H72.531L60.785,16.264,46.327,36.306,31.871,56.267H72.614V72.531H.083L11.91,56.267,26.285,36.306,40.743,16.264H0Z" fill="#fff"/>
    </g>
    <g id="Group_13" data-name="Group 13" transform="translate(0 -51.376)" clip-path="url(#clip-path)">
      <g id="Group_11" data-name="Group 11" transform="translate(412.659 40.436)">
        <path id="Path_13" data-name="Path 13" d="M46.406,23.2A36.023,36.023,0,0,1,30.142,53.431,35.284,35.284,0,0,1,10.265,59.51a36.265,36.265,0,1,1,0-72.531,35.853,35.853,0,0,1,19.878,6A36.133,36.133,0,0,1,46.406,23.2M10.265,43.246A20,20,0,1,0-9.777,23.2,19.981,19.981,0,0,0,10.265,43.246" transform="translate(26.041 13.021)" fill="#fff"/>
      </g>
      <g id="Group_12" data-name="Group 12" transform="translate(499.069 40.437)">
        <path id="Path_14" data-name="Path 14" d="M31.728,21.046A16.722,16.722,0,0,0,15.052,4.454,16.7,16.7,0,0,0-1.54,21.046V60.721H-17.8V-11.81H-1.54v4.6a31.9,31.9,0,0,1,16.592-4.6,32.186,32.186,0,0,1,16.676,4.6A32.822,32.822,0,0,1,47.991,21.046V60.721H31.728V21.046Z" transform="translate(17.804 11.81)" fill="#fff"/>
      </g>
    </g>
  </g>
</svg>
